<?xml version="1.0" encoding="UTF-8"?>
<svg width="42px" height="42px" viewBox="0 0 42 42" version="1.1" xmlns="http://www.w3.org/2000/svg" xmlns:xlink="http://www.w3.org/1999/xlink">
    <!-- Generator: Sketch 55.1 (78136) - https://sketchapp.com -->
    <title>Tala_Web_FooterIcon_LI@1x</title>
    <desc>Created with Sketch.</desc>
    <g id="Tala_Web_FooterIcon_LI" stroke="none" stroke-width="1" fill="none" fill-rule="evenodd">
        <g>
            <rect id="Rectangle" fill-opacity="0" fill="#757575" x="0" y="0" width="42" height="42"></rect>
            
            <path d="M32.0856828,32.0850207 L27.3081931,32.0850207 L27.3081931,23.7952552 C27.3081931,21.3493517 26.2685241,20.5950345 24.9271724,20.5950345 C23.5099034,20.5950345 22.1197793,21.6618483 22.1197793,23.8561655 L22.1197793,32.0850207 L17.342069,32.0850207 L17.342069,16.9073103 L21.9368276,16.9073103 L21.9368276,19.0100414 L21.9977379,19.0100414 C22.4600828,18.0756414 24.0737655,16.4804966 26.538869,16.4804966 C29.2048,16.4804966 32.0856828,18.0619586 32.0856828,22.6979862 L32.0856828,32.0850207 Z M12.0832552,14.7926621 C10.5618207,14.7926621 9.3286069,13.6347034 9.3286069,12.0501517 C9.3286069,10.4658207 10.5618207,9.30653793 12.0832552,9.30653793 C13.604469,9.30653793 14.8376828,10.4658207 14.8376828,12.0501517 C14.8376828,13.6347034 13.604469,14.7926621 12.0832552,14.7926621 L12.0832552,14.7926621 Z M9.69451034,32.0733241 L14.472,32.0733241 L14.472,16.8956138 L9.69451034,16.8956138 L9.69451034,32.0733241 Z M34.4342621,5 L7.34593103,5 C6.05026207,5 5,6.05026207 5,7.34593103 L5,34.4333793 C5,35.7290483 6.05026207,36.7793103 7.34593103,36.7793103 L34.4342621,36.7793103 C35.729931,36.7793103 36.7799724,35.7290483 36.7799724,34.4333793 L36.7799724,7.34593103 C36.7799724,6.05026207 35.729931,5 34.4342621,5 L34.4342621,5 Z" id="Fill-1" fill="#a4a4a4"></path>
        </g>
    </g>
</svg>