<?xml version="1.0" encoding="UTF-8"?>
<svg width="42px" height="42px" viewBox="0 0 42 42" version="1.1" xmlns="http://www.w3.org/2000/svg" xmlns:xlink="http://www.w3.org/1999/xlink">
    <!-- Generator: Sketch 55.1 (78136) - https://sketchapp.com -->
    <title>Tala_Web_FooterIcon_IG@1x</title>
    <desc>Created with Sketch.</desc>
    <defs>
        <path d="M14.4021683,5.09685882 C8.59112029,5.36476621 5.36344863,8.57965483 5.09705731,14.382941 L5.09705731,14.382941 C5.01858544,16.0872441 5,16.6313022 5,20.9672802 L5,20.9672802 C5,25.3032582 5.01858544,25.8473162 5.09499226,27.5495585 L5.09499226,27.5495585 C5.36138358,33.3507838 8.58492514,36.5739158 14.4021683,36.8397623 L14.4021683,36.8397623 C16.1099639,36.9160129 16.6530718,36.9345603 21,36.9345603 L21,36.9345603 C25.3448632,36.9345603 25.8879711,36.9160129 27.5957666,36.8397623 L27.5957666,36.8397623 C33.4006195,36.5739158 36.6365514,33.3549055 36.9008776,27.5495585 L36.9008776,27.5495585 C36.9814146,25.8473162 37,25.3032582 37,20.9672802 L37,20.9672802 C37,16.6313022 36.9814146,16.0872441 36.9008776,14.3850018 L36.9008776,14.3850018 C36.6427465,8.59408062 33.4130098,5.36476621 27.5957666,5.09891965 L27.5957666,5.09891965 C25.8879711,5.02060826 25.3448632,5 21,5 L21,5 C16.6530718,5 16.1099639,5.02060826 14.4021683,5.09685882 L14.4021683,5.09685882 Z M14.5322664,33.9669708 C10.1874032,33.7670707 8.17398038,31.7062447 7.97367062,27.4197265 L7.97367062,27.4197265 C7.89726381,25.7360316 7.88074342,25.2311292 7.88074342,20.9672802 L7.88074342,20.9672802 C7.88074342,16.7034311 7.89932886,16.2005895 7.97367062,14.5148338 L7.97367062,14.5148338 C8.17604543,10.2221332 10.1935983,8.16748962 14.5322664,7.97171115 L14.5322664,7.97171115 C16.2214765,7.89546059 16.7253485,7.87897398 21,7.87897398 L21,7.87897398 C25.2725865,7.87897398 25.7764584,7.89546059 27.4656686,7.97171115 L27.4656686,7.97171115 C31.8002065,8.16955045 33.8260196,10.2221332 34.0242643,14.5168947 L34.0242643,14.5168947 C34.1006711,16.2005895 34.1171915,16.7075527 34.1171915,20.969341 L34.1171915,20.969341 C34.1171915,25.2331901 34.1006711,25.7380924 34.0242643,27.4197265 L34.0242643,27.4197265 C33.8239546,31.7124271 31.8064017,33.7691315 27.4656686,33.9669708 L27.4656686,33.9669708 C25.7764584,34.0432214 25.2725865,34.059708 21,34.059708 L21,34.059708 C16.7253485,34.059708 16.2214765,34.0432214 14.5322664,33.9669708 L14.5322664,33.9669708 Z M27.6184822,12.4457645 C27.6184822,13.5050291 28.4775426,14.3623327 29.5410428,14.3623327 L29.5410428,14.3623327 C30.600413,14.3623327 31.4594734,13.5050291 31.4594734,12.4457645 L31.4594734,12.4457645 C31.4594734,11.3885607 30.600413,10.5291963 29.5410428,10.5291963 L29.5410428,10.5291963 C28.4775426,10.5291963 27.6184822,11.3885607 27.6184822,12.4457645 L27.6184822,12.4457645 Z M12.7831699,20.9672802 C12.7831699,25.4969758 16.4610222,29.167307 21,29.167307 L21,29.167307 C25.5348477,29.167307 29.2147651,25.4969758 29.2147651,20.9672802 L29.2147651,20.9672802 C29.2147651,16.4396454 25.5348477,12.7693142 21,12.7693142 L21,12.7693142 C16.4610222,12.7693142 12.7831699,16.4396454 12.7831699,20.9672802 L12.7831699,20.9672802 Z M15.6659783,20.9672802 C15.6659783,18.0285422 18.053175,15.6462273 21,15.6462273 L21,15.6462273 C23.9447599,15.6462273 26.3340217,18.0285422 26.3340217,20.9672802 L26.3340217,20.9672802 C26.3340217,23.9080789 23.9447599,26.2903938 21,26.2903938 L21,26.2903938 C18.053175,26.2903938 15.6659783,23.9080789 15.6659783,20.9672802 L15.6659783,20.9672802 Z" id="path-1"></path>
    </defs>
    <g id="Tala_Web_FooterIcon_IG" stroke="none" stroke-width="1" fill="none" fill-rule="evenodd">
        <g>
            <rect id="Rectangle" fill-opacity="0" fill="#757575" x="0" y="0" width="42" height="42"></rect>
            <mask id="mask-2" fill="white">
                <use xlink:href="#path-1"></use>
            </mask>
            <use id="Clip-14" fill="#a4a4a4" xlink:href="#path-1"></use>
        </g>
    </g>
</svg>