<?xml version="1.0" encoding="UTF-8"?>
<svg width="42px" height="42px" viewBox="0 0 42 42" version="1.1" xmlns="http://www.w3.org/2000/svg" xmlns:xlink="http://www.w3.org/1999/xlink">
    <!-- Generator: Sketch 55.1 (78136) - https://sketchapp.com -->
    <title>Tala_Web_FooterIcon_TW@1x</title>
    <desc>Created with Sketch.</desc>
    <defs>
        <path d="M21.210569,16.2570037 C15.598156,15.9777507 10.6251588,13.2994605 7.29212475,9.22913635 L7.29212475,9.22913635 C5.52257895,12.2522617 6.37442513,16.208346 9.38031625,18.2117748 L9.38031625,18.2117748 C8.27567781,18.1736948 7.23264422,17.8711707 6.32131751,17.3676691 L6.32131751,17.3676691 C6.24696685,20.4838788 8.49023259,23.399111 11.7404187,24.0464702 L11.7404187,24.0464702 C10.7908546,24.3066833 9.74782096,24.3638032 8.68779292,24.1628256 L8.68779292,24.1628256 C9.54813632,26.8347692 12.0399457,28.7789625 14.9991021,28.8318513 L14.9991021,28.8318513 C12.1589068,31.048951 8.58157769,32.0390298 5,31.6180348 L5,31.6180348 C7.98889668,33.5262636 11.5386098,34.6411601 15.3517367,34.6411601 L15.3517367,34.6411601 C27.8893829,34.6411601 34.973939,24.0951279 34.5469538,14.6343745 L34.5469538,14.6343745 C35.866147,13.6866067 37.0111472,12.501897 37.916101,11.1542897 L37.916101,11.1542897 C36.7052473,11.6895246 35.4030486,12.0491686 34.039245,12.2141818 L34.039245,12.2141818 C35.4327888,11.3806538 36.5034384,10.0626643 37.0090229,8.49080832 L37.0090229,8.49080832 C35.7025755,9.2629852 34.255924,9.82149122 32.7200518,10.1240153 L32.7200518,10.1240153 C31.487955,8.81660349 29.7311551,8 27.7916649,8 L27.7916649,8 C23.4304674,8 20.2248916,12.0512842 21.210569,16.2570037 L21.210569,16.2570037 Z" id="path-1"></path>
    </defs>
    <g id="Tala_Web_FooterIcon_TW" stroke="none" stroke-width="1" fill="none" fill-rule="evenodd">
        <g>
            <rect id="Rectangle" fill-opacity="0" fill="#757575" x="0" y="0" width="42" height="42"></rect>
            <mask id="mask-2" fill="white">
                <use xlink:href="#path-1"></use>
            </mask>
            <use id="Clip-9" fill="#a4a4a4" xlink:href="#path-1"></use>
        </g>
    </g>
</svg>